<mxfile host="app.diagrams.net" agent="Mozilla/5.0 (Windows NT 10.0; Win64; x64) AppleWebKit/537.36 (KHTML, like Gecko) Chrome/136.0.0.0 Safari/537.36 Edg/136.0.0.0" version="27.1.6">
  <diagram name="Página-1" id="VQ27BKA95Z9IV2nVAHfz">
    <mxGraphModel dx="864" dy="482" grid="1" gridSize="10" guides="1" tooltips="1" connect="1" arrows="1" fold="1" page="1" pageScale="1" pageWidth="827" pageHeight="1169" math="0" shadow="0">
      <root>
        <mxCell id="0" />
        <mxCell id="1" parent="0" />
        <mxCell id="FGpVKYbslWUlgAMijHOf-3" style="edgeStyle=orthogonalEdgeStyle;rounded=0;orthogonalLoop=1;jettySize=auto;html=1;" parent="1" source="FGpVKYbslWUlgAMijHOf-1" target="FGpVKYbslWUlgAMijHOf-2" edge="1">
          <mxGeometry relative="1" as="geometry" />
        </mxCell>
        <mxCell id="FGpVKYbslWUlgAMijHOf-1" value="Start" style="strokeWidth=2;html=1;shape=mxgraph.flowchart.start_2;whiteSpace=wrap;" parent="1" vertex="1">
          <mxGeometry x="73" y="10" width="60" height="50" as="geometry" />
        </mxCell>
        <mxCell id="-i3LnAInI_UD1HLDIQef-6" style="edgeStyle=orthogonalEdgeStyle;rounded=0;orthogonalLoop=1;jettySize=auto;html=1;" parent="1" source="FGpVKYbslWUlgAMijHOf-2" target="-i3LnAInI_UD1HLDIQef-3" edge="1">
          <mxGeometry relative="1" as="geometry" />
        </mxCell>
        <mxCell id="FGpVKYbslWUlgAMijHOf-2" value="A = [2,6,1,4,8]&lt;div&gt;N = length(A)&lt;/div&gt;&lt;div&gt;i = 0&lt;/div&gt;" style="shape=parallelogram;html=1;strokeWidth=2;perimeter=parallelogramPerimeter;whiteSpace=wrap;rounded=1;arcSize=12;size=0.23;" parent="1" vertex="1">
          <mxGeometry x="27" y="90" width="153" height="60" as="geometry" />
        </mxCell>
        <mxCell id="-i3LnAInI_UD1HLDIQef-9" style="edgeStyle=orthogonalEdgeStyle;rounded=0;orthogonalLoop=1;jettySize=auto;html=1;entryX=0.5;entryY=0;entryDx=0;entryDy=0;" parent="1" source="-i3LnAInI_UD1HLDIQef-3" target="-i3LnAInI_UD1HLDIQef-7" edge="1">
          <mxGeometry relative="1" as="geometry" />
        </mxCell>
        <mxCell id="-i3LnAInI_UD1HLDIQef-3" value="While A(i) &amp;lt; A(i+1)&amp;nbsp;" style="rounded=1;whiteSpace=wrap;html=1;absoluteArcSize=1;arcSize=14;strokeWidth=2;" parent="1" vertex="1">
          <mxGeometry x="63" y="180" width="80" height="60" as="geometry" />
        </mxCell>
        <mxCell id="-i3LnAInI_UD1HLDIQef-11" style="edgeStyle=orthogonalEdgeStyle;rounded=0;orthogonalLoop=1;jettySize=auto;html=1;" parent="1" source="-i3LnAInI_UD1HLDIQef-7" target="-i3LnAInI_UD1HLDIQef-10" edge="1">
          <mxGeometry relative="1" as="geometry" />
        </mxCell>
        <mxCell id="-i3LnAInI_UD1HLDIQef-7" value="i = i+1&lt;div&gt;N1 = A[i]&lt;/div&gt;&lt;div&gt;N2 = A[i+1]&lt;/div&gt;" style="rounded=1;whiteSpace=wrap;html=1;absoluteArcSize=1;arcSize=14;strokeWidth=2;" parent="1" vertex="1">
          <mxGeometry x="63" y="280" width="80" height="60" as="geometry" />
        </mxCell>
        <mxCell id="-i3LnAInI_UD1HLDIQef-13" style="edgeStyle=orthogonalEdgeStyle;rounded=0;orthogonalLoop=1;jettySize=auto;html=1;" parent="1" source="-i3LnAInI_UD1HLDIQef-10" target="-i3LnAInI_UD1HLDIQef-12" edge="1">
          <mxGeometry relative="1" as="geometry" />
        </mxCell>
        <mxCell id="-i3LnAInI_UD1HLDIQef-10" value="A[i] = N2&lt;div&gt;A[i+1]=N1&lt;/div&gt;" style="rounded=1;whiteSpace=wrap;html=1;absoluteArcSize=1;arcSize=14;strokeWidth=2;" parent="1" vertex="1">
          <mxGeometry x="63" y="380" width="80" height="60" as="geometry" />
        </mxCell>
        <mxCell id="-i3LnAInI_UD1HLDIQef-12" value="A[i] = N2&lt;div&gt;A[i+1]=N1&lt;/div&gt;" style="rounded=1;whiteSpace=wrap;html=1;absoluteArcSize=1;arcSize=14;strokeWidth=2;" parent="1" vertex="1">
          <mxGeometry x="63" y="480" width="80" height="60" as="geometry" />
        </mxCell>
        <mxCell id="MfSlDP8xrRljnw1c9lW4-4" value="Libro" style="swimlane;fontStyle=1;align=center;verticalAlign=top;childLayout=stackLayout;horizontal=1;startSize=26;horizontalStack=0;resizeParent=1;resizeParentMax=0;resizeLast=0;collapsible=1;marginBottom=0;whiteSpace=wrap;html=1;" vertex="1" parent="1">
          <mxGeometry x="210" y="40" width="280" height="180" as="geometry" />
        </mxCell>
        <mxCell id="MfSlDP8xrRljnw1c9lW4-5" value="+ título: string&lt;div&gt;+ autor: string&lt;/div&gt;&lt;div&gt;+ isbn: string&lt;/div&gt;&lt;div&gt;+ disponible: boolean&lt;/div&gt;&lt;div&gt;+ limiteLibros: Number&lt;/div&gt;" style="text;strokeColor=none;fillColor=none;align=left;verticalAlign=top;spacingLeft=4;spacingRight=4;overflow=hidden;rotatable=0;points=[[0,0.5],[1,0.5]];portConstraint=eastwest;whiteSpace=wrap;html=1;" vertex="1" parent="MfSlDP8xrRljnw1c9lW4-4">
          <mxGeometry y="26" width="280" height="84" as="geometry" />
        </mxCell>
        <mxCell id="MfSlDP8xrRljnw1c9lW4-6" value="" style="line;strokeWidth=1;fillColor=none;align=left;verticalAlign=middle;spacingTop=-1;spacingLeft=3;spacingRight=3;rotatable=0;labelPosition=right;points=[];portConstraint=eastwest;strokeColor=inherit;" vertex="1" parent="MfSlDP8xrRljnw1c9lW4-4">
          <mxGeometry y="110" width="280" height="8" as="geometry" />
        </mxCell>
        <mxCell id="MfSlDP8xrRljnw1c9lW4-7" value="+ prestarLibro(limiteLibros: Number, disponible: boolean): prestar: boolean" style="text;strokeColor=none;fillColor=none;align=left;verticalAlign=top;spacingLeft=4;spacingRight=4;overflow=hidden;rotatable=0;points=[[0,0.5],[1,0.5]];portConstraint=eastwest;whiteSpace=wrap;html=1;" vertex="1" parent="MfSlDP8xrRljnw1c9lW4-4">
          <mxGeometry y="118" width="280" height="62" as="geometry" />
        </mxCell>
        <mxCell id="MfSlDP8xrRljnw1c9lW4-8" value="Usuario" style="swimlane;fontStyle=1;align=center;verticalAlign=top;childLayout=stackLayout;horizontal=1;startSize=26;horizontalStack=0;resizeParent=1;resizeParentMax=0;resizeLast=0;collapsible=1;marginBottom=0;whiteSpace=wrap;html=1;" vertex="1" parent="1">
          <mxGeometry x="520" y="30" width="280" height="190" as="geometry" />
        </mxCell>
        <mxCell id="MfSlDP8xrRljnw1c9lW4-9" value="+ nombre: string&lt;div&gt;+ email: string&lt;/div&gt;&lt;div&gt;+ librosPrestados: array&lt;/div&gt;&lt;div&gt;+CantidadLibros: number&lt;/div&gt;" style="text;strokeColor=none;fillColor=none;align=left;verticalAlign=top;spacingLeft=4;spacingRight=4;overflow=hidden;rotatable=0;points=[[0,0.5],[1,0.5]];portConstraint=eastwest;whiteSpace=wrap;html=1;" vertex="1" parent="MfSlDP8xrRljnw1c9lW4-8">
          <mxGeometry y="26" width="280" height="74" as="geometry" />
        </mxCell>
        <mxCell id="MfSlDP8xrRljnw1c9lW4-10" value="" style="line;strokeWidth=1;fillColor=none;align=left;verticalAlign=middle;spacingTop=-1;spacingLeft=3;spacingRight=3;rotatable=0;labelPosition=right;points=[];portConstraint=eastwest;strokeColor=inherit;" vertex="1" parent="MfSlDP8xrRljnw1c9lW4-8">
          <mxGeometry y="100" width="280" height="8" as="geometry" />
        </mxCell>
        <mxCell id="MfSlDP8xrRljnw1c9lW4-11" value="+ buscarLibro(isbn:string,titulo: string, autor: string): isbn: string, disponible: boolean&lt;div&gt;+pedirLibro(isbn: string): ObtenerLibro: boolean&lt;/div&gt;&lt;div&gt;+devolverLibro()&lt;/div&gt;" style="text;strokeColor=none;fillColor=none;align=left;verticalAlign=top;spacingLeft=4;spacingRight=4;overflow=hidden;rotatable=0;points=[[0,0.5],[1,0.5]];portConstraint=eastwest;whiteSpace=wrap;html=1;" vertex="1" parent="MfSlDP8xrRljnw1c9lW4-8">
          <mxGeometry y="108" width="280" height="82" as="geometry" />
        </mxCell>
      </root>
    </mxGraphModel>
  </diagram>
</mxfile>
